<?xml version="1.0" standalone="no"?>
<!DOCTYPE svg PUBLIC "-//W3C//DTD SVG 20010904//EN"
 "http://www.w3.org/TR/2001/REC-SVG-20010904/DTD/svg10.dtd">
<svg version="1.0" xmlns="http://www.w3.org/2000/svg"
 width="700.000000pt" height="700.000000pt" viewBox="0 0 700.000000 700.000000"
 preserveAspectRatio="xMidYMid meet">
<metadata>
Created by potrace 1.14, written by Peter Selinger 2001-2017
</metadata>
<g transform="translate(0.000000,700.000000) scale(0.100000,-0.100000)"
fill="#000000" stroke="none">
<path d="M580 6778 c-271 -50 -448 -216 -527 -493 -22 -79 -28 -133 -27 -245
1 -100 15 -174 99 -540 2 -8 10 -44 18 -80 8 -36 34 -148 57 -250 23 -102 49
-214 57 -250 8 -36 16 -72 18 -80 31 -134 80 -354 95 -420 10 -47 28 -125 40
-175 11 -49 23 -101 26 -114 2 -12 12 -53 20 -90 9 -36 17 -73 19 -81 2 -8 10
-45 19 -81 8 -37 17 -78 20 -90 2 -13 21 -96 41 -184 20 -88 38 -167 40 -175
35 -158 79 -352 145 -641 44 -194 82 -363 84 -374 3 -11 12 -51 21 -90 36
-156 75 -326 80 -350 2 -11 29 -130 60 -265 31 -135 58 -254 60 -265 3 -11 12
-51 20 -90 9 -38 18 -81 21 -95 3 -14 18 -81 35 -150 42 -179 57 -250 65 -295
11 -63 62 -193 99 -254 124 -203 317 -293 630 -294 33 0 173 12 202 17 10 2
56 7 103 11 47 4 92 8 100 10 8 1 51 6 95 10 44 4 91 9 105 10 14 1 59 6 100
10 41 4 86 9 100 10 14 2 57 6 96 9 39 4 80 8 90 10 10 2 55 7 99 11 44 4 87
8 95 10 8 1 47 6 85 9 162 15 181 17 205 21 14 3 54 7 90 11 98 9 139 13 179
18 20 3 65 8 101 11 36 3 81 8 100 10 19 3 57 7 84 10 26 2 65 6 85 9 20 3 63
8 96 11 33 3 71 8 85 10 22 3 59 7 180 20 127 13 167 18 180 20 8 2 49 6 90
10 41 3 82 8 90 10 8 2 40 7 70 10 30 3 71 8 90 10 19 2 59 7 89 10 30 4 61 8
70 10 9 1 45 6 81 10 36 3 76 8 90 10 14 2 81 11 150 20 69 9 136 18 150 20
14 3 49 7 78 11 29 3 61 7 70 9 22 4 157 24 202 29 55 7 111 16 165 26 28 5
70 12 95 15 25 4 68 11 95 17 28 5 66 12 85 15 81 12 226 55 238 70 24 33 32
90 27 208 -3 66 -7 131 -10 145 -7 31 -8 88 -2 115 3 11 8 49 12 85 4 36 9 69
12 73 3 4 6 72 8 150 2 78 4 145 5 148 0 3 30 16 67 28 72 24 181 91 231 142
37 38 63 90 64 127 1 25 -211 463 -362 747 -112 213 -217 411 -270 510 -59
110 -235 435 -262 485 -14 25 -45 81 -68 125 -24 44 -64 118 -90 165 -26 47
-56 101 -67 120 -24 45 -222 400 -233 420 -5 8 -48 85 -96 170 -102 183 -243
431 -273 480 -11 19 -24 41 -28 49 -4 8 -42 76 -86 150 -44 75 -87 150 -97
167 -10 17 -37 62 -59 99 -23 37 -41 69 -41 71 0 2 -30 52 -68 112 -37 60 -71
116 -77 125 -44 74 -120 187 -173 260 -61 83 -84 102 -137 113 -11 2 -31 6
-45 9 -14 3 -42 8 -64 11 -21 3 -46 7 -55 9 -9 2 -61 9 -116 16 -105 13 -111
16 -140 76 -13 28 -54 62 -63 54 -2 -3 -93 6 -152 14 -49 7 -116 14 -180 20
-36 3 -86 8 -111 10 -25 3 -75 7 -110 10 -35 2 -82 6 -104 9 -22 2 -87 8 -145
11 -58 4 -116 8 -130 10 -65 8 -309 19 -436 19 -149 1 -174 -6 -174 -46 0 -19
-5 -20 -102 -13 -57 4 -119 8 -138 10 -19 2 -75 6 -125 10 -49 3 -106 7 -125
10 -19 2 -80 6 -135 10 -55 3 -120 8 -145 10 -78 7 -172 15 -265 20 -49 3
-115 8 -145 10 -30 2 -95 7 -145 10 -49 4 -106 8 -125 10 -50 5 -264 17 -335
19 -33 1 -80 -1 -105 -6z"/>
</g>
</svg>
