<svg width="100%" height="100%" viewBox="0 0 64 64" version="1.1" xmlns="http://www.w3.org/2000/svg" xmlns:xlink="http://www.w3.org/1999/xlink" xml:space="preserve" xmlns:serif="http://www.serif.com/" style="fill-rule:evenodd;clip-rule:evenodd;stroke-linejoin:round;stroke-miterlimit:2;">
    <g transform="matrix(1.09505,0.37232,-0.37232,1.09505,7.40489,-13.8508)">
        <path d="M59.492,36.065C59.492,36.065 63.448,41.921 62.468,42.844C58.939,45.499 34.414,56.572 29.446,58.86C26.952,59.742 24.664,59.796 22.731,57.175C14.517,44.445 60.072,31.882 60.072,31.882C60.072,31.882 62.021,31.721 62.476,32.245C63.089,33.211 61.645,34.727 61.458,34.902C60.388,35.854 59.492,36.065 59.492,36.065Z" style="fill:rgb(191,29,23);fill-rule:nonzero;"/>
        <path d="M28.746,49.203C26.586,50.302 25.14,51.621 25.549,54.207C26.56,57.008 28.083,56.73 29.367,56.208C35.36,54.025 59.888,42.39 61.248,41.589C61.944,40.742 61.438,37.919 60.584,35.555C60.584,35.555 33.747,46.888 28.746,49.203Z" style="fill:rgb(255,209,170);fill-rule:nonzero;"/>
        <clipPath id="_clip1">
            <path d="M28.746,49.203C26.586,50.302 25.14,51.621 25.549,54.207C26.56,57.008 28.083,56.73 29.367,56.208C35.36,54.025 59.888,42.39 61.248,41.589C61.944,40.742 61.438,37.919 60.584,35.555C60.584,35.555 33.747,46.888 28.746,49.203Z" clip-rule="nonzero"/>
        </clipPath>
        <g clip-path="url(#_clip1)">
            <g id="PageMarks">
                <g transform="matrix(1,0,0,1,-0.0191703,-0.226274)">
                    <path d="M62.033,37.468L32.588,50.044L61.657,36.455L62.033,37.468Z" style="fill:rgb(255,187,127);fill-rule:nonzero;"/>
                </g>
                <g transform="matrix(1.32963,0,0,1.6168,-19.3815,-23.862)">
                    <path d="M61.878,39.198L37.081,47.98L61.644,38.435L61.878,39.198Z" style="fill:rgb(254,186,127);fill-rule:nonzero;"/>
                </g>
            </g>
        </g>
        <path d="M33.3,6.097C34.843,6.284 57.424,26.963 61.879,31.648C62.237,32.024 62.629,32.327 62.556,32.419C62.446,32.556 61.95,32.695 61.304,32.97C54.824,35.736 27.082,46.985 27.082,46.985L5.573,15.954L3.672,13.193C3.672,13.193 31.217,5.827 33.3,6.097Z" style="fill:rgb(254,97,91);fill-rule:nonzero;"/>
        <path d="M22.729,57.17C19.783,50.299 27.103,46.952 27.103,46.952L3.689,13.188C3.689,13.188 0.184,13.997 -0,17.921C-0.105,20.152 1.019,21.818 1.019,21.818L22.729,57.168L1.019,21.818L22.729,57.168" style="fill:rgb(230,56,53);fill-rule:nonzero;"/>
        <g transform="matrix(1.75436,0,0,1.75436,-19.6023,-5.45899)">
            <path d="M27.585,7.007C27.176,7.023 22.281,7.84 21.035,8.302C20.87,8.363 20.927,8.556 20.904,8.588C21.112,9.099 27.733,17.928 28.149,17.876C28.723,17.662 29.241,13.785 29.699,13.51C30.131,13.25 34.742,14.727 35.302,14.642C35.45,14.524 35.655,14.286 35.395,14.02C34.137,12.547 27.963,7.222 27.585,7.007Z" style="fill:rgb(154,18,92);"/>
        </g>
        <g transform="matrix(1.75436,0,0,1.75436,-19.3142,-6.27052)">
            <path d="M27.585,7.007C27.122,7.025 21.036,8.503 20.847,8.782C21.055,9.292 27.673,17.782 28.149,17.876C28.603,17.664 29.332,13.855 29.79,13.58C30.222,13.32 35.204,15.044 35.329,14.644C35.392,14.321 28.011,7.249 27.585,7.007Z" style="fill:rgb(220,111,171);"/>
        </g>
    </g>
</svg>
